<svg
    width="100"
    height="100"
    viewBox="0 0 24 24"
    fill="none"
    xmlns="http://www.w3.org/2000/svg"
>
    <circle cx="12" cy="12" r="10" stroke="#000" stroke-width="2" />
    <path
        d="M12 2C12.5523 2 13 2.44772 13 3C13 3.55228 12.5523 4 12 4C11.4477 4 11 3.55228 11 3C11 2.44772 11.4477 2 12 2Z"
        fill="#000"
    />
    <path
        d="M4.92902 4.92901C5.29289 4.56514 5.70711 4.56514 6.07098 4.92901C6.43485 5.29289 6.43485 5.70711 6.07098 6.07098C5.70711 6.43485 5.29289 6.43485 4.92902 6.07098C4.56514 5.70711 4.56514 5.29289 4.92902 4.92901Z"
        fill="#000"
    />
    <path
        d="M12 20C12.5523 20 13 20.4477 13 21C13 21.5523 12.5523 22 12 22C11.4477 22 11 21.5523 11 21C11 20.4477 11.4477 20 12 20Z"
        fill="#000"
    />
    <path
        d="M19.071 19.071C19.4349 18.7071 19.8491 18.7071 20.213 19.071C20.5769 19.4349 20.5769 19.8491 20.213 20.213C19.8491 20.5769 19.4349 20.5769 19.071 20.213C18.7071 19.8491 18.7071 19.4349 19.071 19.071Z"
        fill="#000"
    />
    <path
        d="M2 12C2 11.4477 2.44772 11 3 11C3.55228 11 4 11.4477 4 12C4 12.5523 3.55228 13 3 13C2.44772 13 2 12.5523 2 12Z"
        fill="#000"
    />
    <path
        d="M19.071 4.92901C19.4349 4.56514 19.8491 4.56514 20.213 4.92901C20.5769 5.29289 20.5769 5.70711 20.213 6.07098C19.8491 6.43485 19.4349 6.43485 19.071 6.07098C18.7071 5.70711 18.7071 5.29289 19.071 4.92901Z"
        fill="#000"
    />
    <path
        d="M12 6C8.68629 6 6 8.68629 6 12C6 15.3137 8.68629 18 12 18C15.3137 18 18 15.3137 18 12C18 8.68629 15.3137 6 12 6ZM12 16C9.79086 16 8 14.2091 8 12C8 9.79086 9.79086 8 12 8C14.2091 8 16 9.79086 16 12C16 14.2091 14.2091 16 12 16Z"
        fill="#000"
    />
</svg>

